<svg xmlns:dc="http://purl.org/dc/elements/1.1/" xmlns:cc="http://creativecommons.org/ns#" xmlns:rdf="http://www.w3.org/1999/02/22-rdf-syntax-ns#" xmlns:svg="http://www.w3.org/2000/svg" xmlns="http://www.w3.org/2000/svg" xmlns:xlink="http://www.w3.org/1999/xlink" id="svg522036" viewBox="0 0 1024 768" height="768px" width="1024px" version="1.1">
    <metadata id="metadata522042">
        <rdf:rdf>
            <cc:work rdf:about="">
                <dc:format>image/svg+xml</dc:format>
                <dc:type rdf:resource="http://purl.org/dc/dcmitype/StillImage"></dc:type>
            </cc:work>
        </rdf:rdf>
    </metadata>
    <defs id="defs522040"></defs>
    <linearGradient spreadMethod="pad" y2="30%" x2="-10%" y1="120%" x1="30%" id="3d_gradient2-logo-f430cf28-585f-4e0d-a0bf-2bba076af82f">
        <stop id="stop522017" stop-opacity="1" stop-color="#ffffff" offset="0%"></stop>
        <stop id="stop522019" stop-opacity="1" stop-color="#000000" offset="100%"></stop>
    </linearGradient>
    <linearGradient gradientTransform="rotate(-30)" spreadMethod="pad" y2="30%" x2="-10%" y1="120%" x1="30%" id="3d_gradient3-logo-f430cf28-585f-4e0d-a0bf-2bba076af82f">
        <stop id="stop522022" stop-opacity="1" stop-color="#ffffff" offset="0%"></stop>
        <stop id="stop522024" stop-opacity="1" stop-color="#cccccc" offset="50%"></stop>
        <stop id="stop522026" stop-opacity="1" stop-color="#000000" offset="100%"></stop>
    </linearGradient>
    <g id="logo-group">
        <image xlink:href="" id="container" x="272" y="144" width="480" height="480" style="display: none;" transform="translate(0 0)"></image>
        <g id="logo-center" transform="translate(5.684341886080802e-14 0)">
            <image xlink:href="" id="icon_container" style="display: none;" x="0" y="0"></image>
            <g id="slogan" style="font-style:normal;font-weight:500;font-size:32px;line-height:1;font-family:'Raleway Medium Alt1';font-variant-ligatures:none;text-align:center;text-anchor:middle" transform="translate(0 0)">
                <path id="path522044" style="font-style:normal;font-weight:500;font-size:32px;line-height:1;font-family:'Raleway Medium Alt1';font-variant-ligatures:none;text-align:center;text-anchor:middle" d="M 343.2825,-22.72 V 0 h 2.88 v -17.568 l 5.088,9.088 1.536,-2.624 -6.464,-11.616 z m 19.52,0 -8.256,14.752 -1.504,2.624 0.704,1.248 h 1.632 l 7.552,-13.472 V 0 h 2.88 v -22.72 z" stroke-width="0" stroke-linejoin="miter" stroke-miterlimit="2" fill="#b914a6" stroke="#b914a6" transform="translate(0 390.22231500000004) translate(292.356225 43.824) scale(1.3) translate(-343.2825 22.72)"></path>
                <path id="path522046" style="font-style:normal;font-weight:500;font-size:32px;line-height:1;font-family:'Raleway Medium Alt1';font-variant-ligatures:none;text-align:center;text-anchor:middle" d="m 377.8515,0.32 c 0.832,0 1.632,-0.096 2.4,-0.32 0.768,-0.192 1.44,-0.48 2.08,-0.864 0.64,-0.384 1.184,-0.832 1.664,-1.344 0.48,-0.512 0.864,-1.056 1.152,-1.696 l -2.432,-0.672 c -0.192,0.448 -0.448,0.832 -0.768,1.152 -0.32,0.352 -0.704,0.64 -1.12,0.864 -0.448,0.256 -0.896,0.448 -1.376,0.576 -0.512,0.128 -0.992,0.192 -1.504,0.192 -0.736,0 -1.44,-0.128 -2.08,-0.416 -0.64,-0.256 -1.216,-0.64 -1.728,-1.152 -0.512,-0.48 -0.928,-1.056 -1.248,-1.76 -0.32,-0.672 -0.512,-1.44 -0.576,-2.272 h 13.856 c 0,-0.096 0.032,-0.256 0.032,-0.448 0,-0.192 0.032,-0.384 0.032,-0.64 0,-1.088 -0.224,-2.176 -0.608,-3.2 -0.384,-1.024 -0.96,-1.952 -1.664,-2.72 -0.736,-0.768 -1.632,-1.408 -2.656,-1.888 -1.024,-0.448 -2.176,-0.704 -3.424,-0.704 -1.28,0 -2.432,0.256 -3.456,0.704 -1.056,0.448 -1.952,1.088 -2.72,1.856 -0.768,0.8 -1.344,1.728 -1.76,2.752 -0.416,1.056 -0.608,2.176 -0.608,3.328 0,1.184 0.192,2.304 0.608,3.36 0.416,1.056 0.992,1.984 1.76,2.752 0.736,0.8 1.632,1.44 2.688,1.888 1.024,0.448 2.176,0.672 3.456,0.672 z m 5.728,-9.792 h -11.328 c 0.064,-0.768 0.224,-1.504 0.544,-2.176 0.32,-0.64 0.704,-1.216 1.216,-1.696 0.512,-0.48 1.088,-0.864 1.76,-1.12 0.64,-0.256 1.344,-0.416 2.112,-0.416 0.736,0 1.44,0.16 2.112,0.416 0.64,0.256 1.216,0.64 1.728,1.088 0.512,0.48 0.928,1.056 1.248,1.728 0.32,0.672 0.544,1.408 0.608,2.176 z" stroke-width="0" stroke-linejoin="miter" stroke-miterlimit="2" fill="#b914a6" stroke="#b914a6" transform="translate(0 390.22231500000004) translate(326.23032499999994 51.270399999999995) scale(1.3) translate(-369.3395 16.992)"></path>
                <path id="path522048" style="font-style:normal;font-weight:500;font-size:32px;line-height:1;font-family:'Raleway Medium Alt1';font-variant-ligatures:none;text-align:center;text-anchor:middle" d="m 403.893,0 v -9.984 c 0,-0.96 -0.096,-1.888 -0.288,-2.752 -0.192,-0.864 -0.48,-1.6 -0.864,-2.24 -0.416,-0.608 -0.96,-1.088 -1.632,-1.472 -0.704,-0.352 -1.536,-0.544 -2.496,-0.544 -1.344,0 -2.592,0.352 -3.712,1.024 -1.152,0.704 -2.048,1.632 -2.688,2.848 v -10.24 h -2.816 V 0 h 2.816 v -10.08 c 0.192,-0.64 0.448,-1.216 0.832,-1.76 0.384,-0.512 0.8,-0.992 1.28,-1.376 0.48,-0.384 0.992,-0.672 1.568,-0.896 0.544,-0.224 1.088,-0.352 1.664,-0.352 1.152,0 2.016,0.448 2.624,1.28 0.576,0.832 0.896,2.112 0.896,3.84 V 0 Z" stroke-width="0" stroke-linejoin="miter" stroke-miterlimit="2" fill="#b914a6" stroke="#b914a6" transform="translate(0 390.22231500000004) translate(352.30507499999993 42.992000000000004) scale(1.3) translate(-389.397 23.36)"></path>
                <path id="path522050" style="font-style:normal;font-weight:500;font-size:32px;line-height:1;font-family:'Raleway Medium Alt1';font-variant-ligatures:none;text-align:center;text-anchor:middle" d="m 416.397,0 h 2.816 v -16.704 h -2.816 z m 0,-19.84 h 2.816 v -3.52 h -2.816 z" stroke-width="0" stroke-linejoin="miter" stroke-miterlimit="2" fill="#b914a6" stroke="#b914a6" transform="translate(0 390.22231500000004) translate(387.40507499999995 42.992000000000004) scale(1.3) translate(-416.397 23.36)"></path>
                <path id="path522052" style="font-style:normal;font-weight:500;font-size:32px;line-height:1;font-family:'Raleway Medium Alt1';font-variant-ligatures:none;text-align:center;text-anchor:middle" d="m 429.628,0.32 c 2.016,0 3.616,-0.448 4.832,-1.376 1.184,-0.896 1.792,-2.144 1.792,-3.712 0,-0.704 -0.16,-1.28 -0.416,-1.792 -0.256,-0.48 -0.672,-0.896 -1.216,-1.28 -0.544,-0.352 -1.216,-0.672 -2.048,-0.928 -0.832,-0.256 -1.792,-0.544 -2.88,-0.8 -0.704,-0.16 -1.312,-0.32 -1.824,-0.48 -0.512,-0.128 -0.896,-0.32 -1.216,-0.512 -0.32,-0.192 -0.576,-0.416 -0.704,-0.672 -0.128,-0.256 -0.192,-0.576 -0.192,-0.96 0,-0.96 0.352,-1.632 1.056,-2.08 0.704,-0.448 1.6,-0.672 2.624,-0.672 0.896,0 1.792,0.16 2.688,0.48 0.864,0.32 1.664,0.768 2.368,1.376 l 1.28,-1.696 c -0.768,-0.64 -1.664,-1.184 -2.752,-1.6 -1.088,-0.384 -2.272,-0.608 -3.52,-0.608 -0.896,0 -1.76,0.128 -2.528,0.352 -0.768,0.224 -1.44,0.544 -2.016,0.992 -0.576,0.448 -1.056,0.992 -1.376,1.632 -0.32,0.64 -0.48,1.376 -0.48,2.208 0,0.672 0.096,1.216 0.32,1.664 0.192,0.448 0.544,0.832 1.024,1.152 0.448,0.32 1.056,0.608 1.792,0.832 0.704,0.256 1.568,0.48 2.592,0.736 0.768,0.192 1.472,0.384 2.08,0.544 0.576,0.192 1.088,0.384 1.472,0.576 0.384,0.224 0.672,0.48 0.864,0.768 0.192,0.288 0.288,0.64 0.288,1.024 0,0.896 -0.384,1.568 -1.088,2.048 -0.704,0.48 -1.664,0.704 -2.88,0.704 -1.088,0 -2.144,-0.16 -3.104,-0.544 -0.992,-0.384 -1.984,-0.928 -2.944,-1.696 l -1.216,1.888 c 0.928,0.8 2.048,1.408 3.36,1.824 1.28,0.416 2.624,0.608 3.968,0.608 z" stroke-width="0" stroke-linejoin="miter" stroke-miterlimit="2" fill="#b914a6" stroke="#b914a6" transform="translate(0 390.22231500000004) translate(395.078975 51.270399999999995) scale(1.3) translate(-422.3 16.992)"></path>
                <path id="path522054" style="font-style:normal;font-weight:500;font-size:32px;line-height:1;font-family:'Raleway Medium Alt1';font-variant-ligatures:none;text-align:center;text-anchor:middle" d="m 445.5655,5.952 c 0.672,0 1.312,-0.128 1.952,-0.384 0.608,-0.256 1.152,-0.64 1.632,-1.12 0.48,-0.48 0.864,-1.056 1.152,-1.728 0.288,-0.64 0.448,-1.376 0.448,-2.176 v -17.248 h -2.816 v 17.44 c 0,0.384 -0.096,0.768 -0.224,1.088 -0.16,0.352 -0.352,0.64 -0.608,0.864 -0.256,0.256 -0.544,0.448 -0.864,0.576 -0.32,0.128 -0.672,0.192 -0.992,0.192 -0.384,0 -0.8,-0.032 -1.184,-0.16 -0.384,-0.096 -0.736,-0.288 -1.024,-0.576 l -1.312,1.888 c 0.512,0.48 1.088,0.832 1.728,1.024 0.64,0.224 1.344,0.32 2.112,0.32 z m 2.368,-25.792 h 2.816 v -3.52 h -2.816 z" stroke-width="0" stroke-linejoin="miter" stroke-miterlimit="2" fill="#b914a6" stroke="#b914a6" transform="translate(0 390.22231500000004) translate(420.332125 42.992000000000004) scale(1.3) translate(-441.7255 23.36)"></path>
                <path id="path522056" style="font-style:normal;font-weight:500;font-size:32px;line-height:1;font-family:'Raleway Medium Alt1';font-variant-ligatures:none;text-align:center;text-anchor:middle" d="m 460.424,0.32 c 1.44,0 2.784,-0.32 4,-0.992 1.216,-0.672 2.176,-1.632 2.944,-2.912 l 0.064,1.952 c 0,0.512 0.192,0.928 0.576,1.248 0.384,0.32 0.832,0.48 1.408,0.48 0.16,0 0.32,0 0.512,0 0.192,0 0.448,-0.032 0.768,-0.096 v -2.432 c -0.608,0 -0.896,-0.352 -0.896,-1.024 v -13.248 h -2.816 V -6.24 c -0.512,1.28 -1.248,2.304 -2.272,3.04 -1.024,0.736 -2.08,1.088 -3.232,1.088 -2.368,0 -3.552,-1.696 -3.552,-5.12 v -9.472 h -2.816 v 10.016 c 0,2.336 0.448,4.096 1.344,5.248 0.896,1.184 2.208,1.76 3.968,1.76 z" stroke-width="0" stroke-linejoin="miter" stroke-miterlimit="2" fill="#b914a6" stroke="#b914a6" transform="translate(0 390.22231500000004) translate(437.73457500000006 51.6448) scale(1.3) translate(-455.112 16.704)"></path>
                <path id="path522058" style="font-style:normal;font-weight:500;font-size:32px;line-height:1;font-family:'Raleway Medium Alt1';font-variant-ligatures:none;text-align:center;text-anchor:middle" d="m 480.378,0.32 c 2.016,0 3.616,-0.448 4.832,-1.376 1.184,-0.896 1.792,-2.144 1.792,-3.712 0,-0.704 -0.16,-1.28 -0.416,-1.792 -0.256,-0.48 -0.672,-0.896 -1.216,-1.28 -0.544,-0.352 -1.216,-0.672 -2.048,-0.928 -0.832,-0.256 -1.792,-0.544 -2.88,-0.8 -0.704,-0.16 -1.312,-0.32 -1.824,-0.48 -0.512,-0.128 -0.896,-0.32 -1.216,-0.512 -0.32,-0.192 -0.576,-0.416 -0.704,-0.672 -0.128,-0.256 -0.192,-0.576 -0.192,-0.96 0,-0.96 0.352,-1.632 1.056,-2.08 0.704,-0.448 1.6,-0.672 2.624,-0.672 0.896,0 1.792,0.16 2.688,0.48 0.864,0.32 1.664,0.768 2.368,1.376 l 1.28,-1.696 c -0.768,-0.64 -1.664,-1.184 -2.752,-1.6 -1.088,-0.384 -2.272,-0.608 -3.52,-0.608 -0.896,0 -1.76,0.128 -2.528,0.352 -0.768,0.224 -1.44,0.544 -2.016,0.992 -0.576,0.448 -1.056,0.992 -1.376,1.632 -0.32,0.64 -0.48,1.376 -0.48,2.208 0,0.672 0.096,1.216 0.32,1.664 0.192,0.448 0.544,0.832 1.024,1.152 0.448,0.32 1.056,0.608 1.792,0.832 0.704,0.256 1.568,0.48 2.592,0.736 0.768,0.192 1.472,0.384 2.08,0.544 0.576,0.192 1.088,0.384 1.472,0.576 0.384,0.224 0.672,0.48 0.864,0.768 0.192,0.288 0.288,0.64 0.288,1.024 0,0.896 -0.384,1.568 -1.088,2.048 -0.704,0.48 -1.664,0.704 -2.88,0.704 -1.088,0 -2.144,-0.16 -3.104,-0.544 -0.992,-0.384 -1.984,-0.928 -2.944,-1.696 l -1.216,1.888 c 0.928,0.8 2.048,1.408 3.36,1.824 1.28,0.416 2.624,0.608 3.968,0.608 z" stroke-width="0" stroke-linejoin="miter" stroke-miterlimit="2" fill="#b914a6" stroke="#b914a6" transform="translate(0 390.22231500000004) translate(461.05397500000004 51.270399999999995) scale(1.3) translate(-473.05 16.992)"></path>
                <path id="path522060" style="font-style:normal;font-weight:500;font-size:32px;line-height:1;font-family:'Raleway Medium Alt1';font-variant-ligatures:none;text-align:center;text-anchor:middle" d="m 498.9745,-0.832 -0.672,-2.24 c -0.192,0.128 -0.512,0.256 -0.96,0.448 -0.448,0.192 -0.96,0.256 -1.504,0.256 -0.512,0 -0.928,-0.128 -1.28,-0.416 -0.384,-0.256 -0.576,-0.704 -0.608,-1.344 v -10.368 h 3.744 v -2.208 h -3.744 v -5.568 h -2.816 v 5.568 h -2.272 v 2.208 h 2.272 v 11.232 c 0,1.216 0.352,2.08 1.12,2.656 0.736,0.576 1.632,0.832 2.656,0.832 0.448,0 0.864,-0.032 1.28,-0.096 0.416,-0.064 0.8,-0.16 1.152,-0.288 0.352,-0.128 0.672,-0.224 0.96,-0.352 0.256,-0.128 0.48,-0.224 0.672,-0.32 z" stroke-width="0" stroke-linejoin="miter" stroke-miterlimit="2" fill="#b914a6" stroke="#b914a6" transform="translate(0 390.22231500000004) translate(481.61022500000007 44.406400000000005) scale(1.3) translate(-488.8625 22.272)"></path>
                <path id="path522062" style="font-style:normal;font-weight:500;font-size:32px;line-height:1;font-family:'Raleway Medium Alt1';font-variant-ligatures:none;text-align:center;text-anchor:middle" d="m 513.9975,0.32 c 1.28,0 2.496,-0.256 3.648,-0.768 1.152,-0.512 2.08,-1.28 2.848,-2.304 l 0.064,1.184 c 0.064,0.48 0.256,0.896 0.576,1.216 0.32,0.32 0.768,0.48 1.344,0.48 0.192,0 0.416,0 0.608,-0.032 0.192,0 0.416,-0.032 0.736,-0.096 v -2.432 c -0.608,0 -0.896,-0.352 -0.896,-1.024 v -6.816 c 0,-2.112 -0.64,-3.776 -1.856,-4.96 -1.216,-1.152 -2.944,-1.76 -5.12,-1.76 -2.176,0 -4.352,0.736 -6.496,2.176 l 0.928,1.824 c 1.856,-1.28 3.616,-1.952 5.312,-1.952 1.408,0 2.496,0.416 3.264,1.184 0.768,0.768 1.152,1.856 1.152,3.2 v 1.344 c -0.64,-0.256 -1.376,-0.448 -2.208,-0.608 -0.832,-0.128 -1.664,-0.224 -2.464,-0.224 -1.024,0 -1.984,0.128 -2.848,0.384 -0.864,0.256 -1.6,0.608 -2.24,1.056 -0.64,0.448 -1.12,0.992 -1.44,1.632 -0.352,0.64 -0.512,1.312 -0.512,2.08 0,0.768 0.128,1.44 0.416,2.08 0.288,0.64 0.672,1.184 1.184,1.632 0.512,0.48 1.088,0.864 1.792,1.12 0.672,0.256 1.408,0.384 2.208,0.384 z m 0.736,-2.112 c -0.512,0 -0.992,-0.064 -1.44,-0.256 -0.448,-0.16 -0.864,-0.384 -1.184,-0.704 -0.32,-0.288 -0.576,-0.64 -0.768,-1.056 -0.192,-0.384 -0.256,-0.832 -0.256,-1.312 0,-0.96 0.416,-1.728 1.312,-2.336 0.896,-0.576 2.048,-0.896 3.456,-0.896 1.472,0 2.88,0.288 4.256,0.8 v 2.464 c 0,0.448 -0.224,0.864 -0.608,1.248 -0.448,0.64 -1.12,1.12 -1.984,1.504 -0.864,0.384 -1.792,0.544 -2.784,0.544 z" stroke-width="0" stroke-linejoin="miter" stroke-miterlimit="2" fill="#b914a6" stroke="#b914a6" transform="translate(0 390.22231500000004) translate(507.005725 51.270399999999995) scale(1.3) translate(-508.3975 16.992)"></path>
                <path id="path522064" style="font-style:normal;font-weight:500;font-size:32px;line-height:1;font-family:'Raleway Medium Alt1';font-variant-ligatures:none;text-align:center;text-anchor:middle" d="m 544.1605,0.32 c 1.088,0 2.144,-0.224 3.104,-0.672 0.96,-0.448 1.824,-1.088 2.528,-1.856 0.704,-0.768 1.248,-1.696 1.664,-2.752 0.384,-1.024 0.608,-2.144 0.608,-3.328 0,-1.088 -0.192,-2.176 -0.544,-3.232 -0.352,-1.056 -0.864,-1.984 -1.504,-2.784 -0.64,-0.8 -1.44,-1.44 -2.336,-1.952 -0.928,-0.48 -1.952,-0.736 -3.104,-0.736 -1.376,0 -2.56,0.352 -3.584,0.992 -1.024,0.672 -1.888,1.536 -2.592,2.624 v -9.984 h -2.816 V 0 h 2.496 v -3.136 c 0.608,1.024 1.44,1.856 2.528,2.496 1.056,0.64 2.24,0.96 3.552,0.96 z m -0.704,-2.432 c -0.512,0 -1.056,-0.096 -1.6,-0.288 -0.544,-0.192 -1.056,-0.448 -1.536,-0.768 -0.48,-0.32 -0.896,-0.736 -1.248,-1.184 -0.352,-0.448 -0.576,-0.928 -0.672,-1.472 v -4.832 c 0.256,-0.512 0.544,-1.024 0.896,-1.504 0.352,-0.448 0.768,-0.864 1.216,-1.216 0.448,-0.352 0.96,-0.64 1.504,-0.864 0.512,-0.192 1.088,-0.32 1.696,-0.32 0.8,0 1.536,0.192 2.208,0.544 0.672,0.352 1.248,0.8 1.728,1.376 0.48,0.576 0.864,1.248 1.12,2.016 0.256,0.768 0.416,1.536 0.416,2.336 0,0.832 -0.16,1.6 -0.416,2.336 -0.288,0.736 -0.672,1.376 -1.184,1.952 -0.512,0.576 -1.12,1.056 -1.824,1.376 -0.704,0.352 -1.472,0.512 -2.304,0.512 z" stroke-width="0" stroke-linejoin="miter" stroke-miterlimit="2" fill="#b914a6" stroke="#b914a6" transform="translate(0 390.22231500000004) translate(542.348825 42.992000000000004) scale(1.3) translate(-535.5845 23.36)"></path>
                <path id="path522066" style="font-style:normal;font-weight:500;font-size:32px;line-height:1;font-family:'Raleway Medium Alt1';font-variant-ligatures:none;text-align:center;text-anchor:middle" d="m 562.914,0.32 c 0.832,0 1.632,-0.096 2.4,-0.32 0.768,-0.192 1.44,-0.48 2.08,-0.864 0.64,-0.384 1.184,-0.832 1.664,-1.344 0.48,-0.512 0.864,-1.056 1.152,-1.696 l -2.432,-0.672 c -0.192,0.448 -0.448,0.832 -0.768,1.152 -0.32,0.352 -0.704,0.64 -1.12,0.864 -0.448,0.256 -0.896,0.448 -1.376,0.576 -0.512,0.128 -0.992,0.192 -1.504,0.192 -0.736,0 -1.44,-0.128 -2.08,-0.416 -0.64,-0.256 -1.216,-0.64 -1.728,-1.152 -0.512,-0.48 -0.928,-1.056 -1.248,-1.76 -0.32,-0.672 -0.512,-1.44 -0.576,-2.272 h 13.856 c 0,-0.096 0.032,-0.256 0.032,-0.448 0,-0.192 0.032,-0.384 0.032,-0.64 0,-1.088 -0.224,-2.176 -0.608,-3.2 -0.384,-1.024 -0.96,-1.952 -1.664,-2.72 -0.736,-0.768 -1.632,-1.408 -2.656,-1.888 -1.024,-0.448 -2.176,-0.704 -3.424,-0.704 -1.28,0 -2.432,0.256 -3.456,0.704 -1.056,0.448 -1.952,1.088 -2.72,1.856 -0.768,0.8 -1.344,1.728 -1.76,2.752 -0.416,1.056 -0.608,2.176 -0.608,3.328 0,1.184 0.192,2.304 0.608,3.36 0.416,1.056 0.992,1.984 1.76,2.752 0.736,0.8 1.632,1.44 2.688,1.888 1.024,0.448 2.176,0.672 3.456,0.672 z m 5.728,-9.792 h -11.328 c 0.064,-0.768 0.224,-1.504 0.544,-2.176 0.32,-0.64 0.704,-1.216 1.216,-1.696 0.512,-0.48 1.088,-0.864 1.76,-1.12 0.64,-0.256 1.344,-0.416 2.112,-0.416 0.736,0 1.44,0.16 2.112,0.416 0.64,0.256 1.216,0.64 1.728,1.088 0.512,0.48 0.928,1.056 1.248,1.728 0.32,0.672 0.544,1.408 0.608,2.176 z" stroke-width="0" stroke-linejoin="miter" stroke-miterlimit="2" fill="#b914a6" stroke="#b914a6" transform="translate(0 390.22231500000004) translate(566.811575 51.270399999999995) scale(1.3) translate(-554.402 16.992)"></path>
                <path id="path522068" style="font-style:normal;font-weight:500;font-size:32px;line-height:1;font-family:'Raleway Medium Alt1';font-variant-ligatures:none;text-align:center;text-anchor:middle" d="m 581.1155,0.192 c 0.576,0 1.184,-0.064 1.76,-0.224 0.576,-0.128 1.12,-0.352 1.632,-0.64 0.512,-0.288 0.96,-0.64 1.408,-1.056 0.448,-0.416 0.832,-0.896 1.152,-1.408 v 2.944 c 0,0.896 -0.16,1.632 -0.48,2.272 -0.32,0.64 -0.704,1.184 -1.216,1.6 -0.512,0.448 -1.12,0.768 -1.824,0.96 -0.704,0.224 -1.408,0.32 -2.176,0.32 -1.216,0 -2.368,-0.224 -3.392,-0.736 -1.056,-0.48 -1.92,-1.216 -2.56,-2.208 l -1.632,1.44 c 0.768,1.152 1.76,2.08 2.944,2.72 1.184,0.64 2.72,0.96 4.64,0.96 1.152,0 2.272,-0.16 3.296,-0.48 1.024,-0.32 1.952,-0.768 2.72,-1.408 0.768,-0.608 1.376,-1.376 1.824,-2.272 0.448,-0.896 0.672,-1.952 0.672,-3.168 v -16.512 h -2.496 v 3.328 c -0.704,-1.024 -1.568,-1.888 -2.592,-2.592 -1.024,-0.672 -2.24,-1.024 -3.648,-1.024 -1.152,0 -2.208,0.256 -3.168,0.704 -0.96,0.448 -1.76,1.088 -2.432,1.856 -0.704,0.8 -1.216,1.728 -1.6,2.784 -0.384,1.056 -0.544,2.176 -0.544,3.328 0,1.12 0.16,2.176 0.544,3.2 0.384,1.024 0.896,1.952 1.6,2.72 0.672,0.8 1.472,1.44 2.432,1.888 0.96,0.48 1.984,0.704 3.136,0.704 z m 0.864,-2.304 c -0.832,0 -1.568,-0.16 -2.272,-0.48 -0.704,-0.32 -1.28,-0.768 -1.792,-1.344 -0.512,-0.544 -0.928,-1.184 -1.216,-1.952 -0.32,-0.736 -0.448,-1.536 -0.448,-2.368 0,-0.768 0.128,-1.504 0.384,-2.272 0.256,-0.768 0.608,-1.44 1.088,-2.048 0.448,-0.576 1.024,-1.056 1.696,-1.44 0.672,-0.352 1.44,-0.544 2.304,-0.544 0.544,0 1.088,0.096 1.632,0.288 0.544,0.192 1.056,0.48 1.536,0.832 0.448,0.352 0.864,0.768 1.248,1.216 0.384,0.48 0.672,0.992 0.928,1.568 v 4.8 c -0.128,0.48 -0.32,0.928 -0.64,1.376 -0.32,0.448 -0.736,0.864 -1.184,1.216 -0.48,0.352 -0.992,0.64 -1.536,0.832 -0.576,0.224 -1.152,0.32 -1.728,0.32 z" stroke-width="0" stroke-linejoin="miter" stroke-miterlimit="2" fill="#b914a6" stroke="#b914a6" transform="translate(0 390.22231500000004) translate(591.513525 51.270399999999995) scale(1.3) translate(-573.4035 16.992)"></path>
                <path id="path522070" style="font-style:normal;font-weight:500;font-size:32px;line-height:1;font-family:'Raleway Medium Alt1';font-variant-ligatures:none;text-align:center;text-anchor:middle" d="m 594.397,0 h 2.816 v -16.704 h -2.816 z m 0,-19.84 h 2.816 v -3.52 h -2.816 z" stroke-width="0" stroke-linejoin="miter" stroke-miterlimit="2" fill="#b914a6" stroke="#b914a6" transform="translate(0 390.22231500000004) translate(618.805075 42.992000000000004) scale(1.3) translate(-594.397 23.36)"></path>
                <path id="path522072" style="font-style:normal;font-weight:500;font-size:32px;line-height:1;font-family:'Raleway Medium Alt1';font-variant-ligatures:none;text-align:center;text-anchor:middle" d="m 616.268,0 v -9.984 c 0,-0.992 -0.096,-1.92 -0.256,-2.784 -0.16,-0.832 -0.416,-1.568 -0.8,-2.208 -0.384,-0.64 -0.896,-1.12 -1.536,-1.472 -0.64,-0.352 -1.44,-0.544 -2.4,-0.544 -1.472,0 -2.848,0.352 -4.096,1.056 -1.248,0.704 -2.208,1.664 -2.848,2.816 v -3.584 h -2.56 V 0 h 2.816 v -10.08 c 0.192,-0.64 0.48,-1.216 0.864,-1.76 0.384,-0.512 0.832,-0.992 1.344,-1.376 0.512,-0.384 1.056,-0.672 1.632,-0.896 0.576,-0.224 1.152,-0.352 1.728,-0.352 1.088,0 1.92,0.416 2.464,1.216 0.544,0.832 0.832,2.112 0.832,3.904 V 0 Z" stroke-width="0" stroke-linejoin="miter" stroke-miterlimit="2" fill="#b914a6" stroke="#b914a6" transform="translate(0 390.22231500000004) translate(628.392575 51.270399999999995) scale(1.3) translate(-601.772 16.992)"></path>
                <path id="path522074" style="font-style:normal;font-weight:500;font-size:32px;line-height:1;font-family:'Raleway Medium Alt1';font-variant-ligatures:none;text-align:center;text-anchor:middle" d="m 635.143,0 v -9.984 c 0,-0.992 -0.096,-1.92 -0.256,-2.784 -0.16,-0.832 -0.416,-1.568 -0.8,-2.208 -0.384,-0.64 -0.896,-1.12 -1.536,-1.472 -0.64,-0.352 -1.44,-0.544 -2.4,-0.544 -1.472,0 -2.848,0.352 -4.096,1.056 -1.248,0.704 -2.208,1.664 -2.848,2.816 v -3.584 h -2.56 V 0 h 2.816 v -10.08 c 0.192,-0.64 0.48,-1.216 0.864,-1.76 0.384,-0.512 0.832,-0.992 1.344,-1.376 0.512,-0.384 1.056,-0.672 1.632,-0.896 0.576,-0.224 1.152,-0.352 1.728,-0.352 1.088,0 1.92,0.416 2.464,1.216 0.544,0.832 0.832,2.112 0.832,3.904 V 0 Z" stroke-width="0" stroke-linejoin="miter" stroke-miterlimit="2" fill="#b914a6" stroke="#b914a6" transform="translate(0 390.22231500000004) translate(652.930075 51.270399999999995) scale(1.3) translate(-620.647 16.992)"></path>
                <path id="path522076" style="font-style:normal;font-weight:500;font-size:32px;line-height:1;font-family:'Raleway Medium Alt1';font-variant-ligatures:none;text-align:center;text-anchor:middle" d="m 639.522,0 h 2.816 v -16.704 h -2.816 z m 0,-19.84 h 2.816 v -3.52 h -2.816 z" stroke-width="0" stroke-linejoin="miter" stroke-miterlimit="2" fill="#b914a6" stroke="#b914a6" transform="translate(0 390.22231500000004) translate(677.467575 42.992000000000004) scale(1.3) translate(-639.522 23.36)"></path>
                <path id="path522078" style="font-style:normal;font-weight:500;font-size:32px;line-height:1;font-family:'Raleway Medium Alt1';font-variant-ligatures:none;text-align:center;text-anchor:middle" d="m 661.393,0 v -9.984 c 0,-0.992 -0.096,-1.92 -0.256,-2.784 -0.16,-0.832 -0.416,-1.568 -0.8,-2.208 -0.384,-0.64 -0.896,-1.12 -1.536,-1.472 -0.64,-0.352 -1.44,-0.544 -2.4,-0.544 -1.472,0 -2.848,0.352 -4.096,1.056 -1.248,0.704 -2.208,1.664 -2.848,2.816 v -3.584 h -2.56 V 0 h 2.816 v -10.08 c 0.192,-0.64 0.48,-1.216 0.864,-1.76 0.384,-0.512 0.832,-0.992 1.344,-1.376 0.512,-0.384 1.056,-0.672 1.632,-0.896 0.576,-0.224 1.152,-0.352 1.728,-0.352 1.088,0 1.92,0.416 2.464,1.216 0.544,0.832 0.832,2.112 0.832,3.904 V 0 Z" stroke-width="0" stroke-linejoin="miter" stroke-miterlimit="2" fill="#b914a6" stroke="#b914a6" transform="translate(0 390.22231500000004) translate(687.055075 51.270399999999995) scale(1.3) translate(-646.897 16.992)"></path>
                <path id="path522080" style="font-style:normal;font-weight:500;font-size:32px;line-height:1;font-family:'Raleway Medium Alt1';font-variant-ligatures:none;text-align:center;text-anchor:middle" d="m 672.428,0.192 c 0.576,0 1.184,-0.064 1.76,-0.224 0.576,-0.128 1.12,-0.352 1.632,-0.64 0.512,-0.288 0.96,-0.64 1.408,-1.056 0.448,-0.416 0.832,-0.896 1.152,-1.408 v 2.944 c 0,0.896 -0.16,1.632 -0.48,2.272 -0.32,0.64 -0.704,1.184 -1.216,1.6 -0.512,0.448 -1.12,0.768 -1.824,0.96 -0.704,0.224 -1.408,0.32 -2.176,0.32 -1.216,0 -2.368,-0.224 -3.392,-0.736 -1.056,-0.48 -1.92,-1.216 -2.56,-2.208 l -1.632,1.44 c 0.768,1.152 1.76,2.08 2.944,2.72 1.184,0.64 2.72,0.96 4.64,0.96 1.152,0 2.272,-0.16 3.296,-0.48 1.024,-0.32 1.952,-0.768 2.72,-1.408 0.768,-0.608 1.376,-1.376 1.824,-2.272 0.448,-0.896 0.672,-1.952 0.672,-3.168 V -16.704 H 678.7 v 3.328 c -0.704,-1.024 -1.568,-1.888 -2.592,-2.592 -1.024,-0.672 -2.24,-1.024 -3.648,-1.024 -1.152,0 -2.208,0.256 -3.168,0.704 -0.96,0.448 -1.76,1.088 -2.432,1.856 -0.704,0.8 -1.216,1.728 -1.6,2.784 -0.384,1.056 -0.544,2.176 -0.544,3.328 0,1.12 0.16,2.176 0.544,3.2 0.384,1.024 0.896,1.952 1.6,2.72 0.672,0.8 1.472,1.44 2.432,1.888 0.96,0.48 1.984,0.704 3.136,0.704 z m 0.864,-2.304 c -0.832,0 -1.568,-0.16 -2.272,-0.48 -0.704,-0.32 -1.28,-0.768 -1.792,-1.344 -0.512,-0.544 -0.928,-1.184 -1.216,-1.952 -0.32,-0.736 -0.448,-1.536 -0.448,-2.368 0,-0.768 0.128,-1.504 0.384,-2.272 0.256,-0.768 0.608,-1.44 1.088,-2.048 0.448,-0.576 1.024,-1.056 1.696,-1.44 0.672,-0.352 1.44,-0.544 2.304,-0.544 0.544,0 1.088,0.096 1.632,0.288 0.544,0.192 1.056,0.48 1.536,0.832 0.448,0.352 0.864,0.768 1.248,1.216 0.384,0.48 0.672,0.992 0.928,1.568 v 4.8 c -0.128,0.48 -0.32,0.928 -0.64,1.376 -0.32,0.448 -0.736,0.864 -1.184,1.216 -0.48,0.352 -0.992,0.64 -1.536,0.832 -0.576,0.224 -1.152,0.32 -1.728,0.32 z" stroke-width="0" stroke-linejoin="miter" stroke-miterlimit="2" fill="#b914a6" stroke="#b914a6" transform="translate(0 390.22231500000004) translate(710.2197749999999 51.270399999999995) scale(1.3) translate(-664.716 16.992)"></path>
            </g>
            <g id="title" style="font-style:normal;font-weight:normal;font-size:72px;line-height:1;font-family:'Brandmark Script 4';font-variant-ligatures:normal;text-align:center;text-anchor:middle" transform="translate(0 0)">
                <path id="path522083" style="font-style:normal;font-weight:normal;font-size:72px;line-height:1;font-family:'Brandmark Script 4';font-variant-ligatures:normal;text-align:center;text-anchor:middle" d="m 254.73219,-73.512 c -0.72,-1.08 -1.8,-1.656 -3.024,-1.656 -1.8,0 -5.544,0 -36.072,23.616 -7.488,5.76 -14.76,11.592 -20.16,15.912 2.016,-5.256 4.536,-11.952 6.912,-18.792 9.504,-27.936 8.424,-34.992 6.408,-37.944 -1.008,-1.512 -2.592,-2.376 -4.392,-2.376 -13.608,0 -33.408,12.24 -52.992,32.832 -18.792,19.728 -33.48,43.2 -38.304,61.128 -0.432,1.584 0.504,3.168 2.088,3.6 1.512,0.432 3.096,-0.504 3.528,-2.016 4.608,-17.136 18.72,-39.6 36.936,-58.68 18,-18.936 36.504,-30.816 48.384,-31.032 0.504,1.224 1.44,7.272 -7.2,32.472 -5.04,14.832 -10.872,28.872 -10.944,29.016 -0.504,1.224 -0.072,2.664 1.008,3.456 1.08,0.792 2.52,0.792 3.6,-0.072 23.4,-19.296 49.752,-39.384 58.68,-44.208 -1.512,5.328 -6.192,16.632 -10.08,25.992 -13.608,32.832 -22.104,54.792 -15.696,61.488 0.504,0.576 1.296,0.936 2.088,0.936 0.72,0 1.44,-0.288 2.016,-0.792 1.152,-1.152 1.224,-2.952 0.072,-4.176 -0.216,-0.216 -2.304,-3.024 3.096,-19.656 3.528,-10.8 9,-23.904 13.824,-35.496 10.008,-24.048 12.312,-30.456 10.224,-33.552 z" stroke-width="0" stroke-linejoin="miter" stroke-miterlimit="2" fill="#8907b0" stroke="#8907b0" transform="translate(0 245.14088500000003) translate(125.37651999999991 53.36143) scale(1) translate(-113.00285 94.752)"></path>
                <path id="path522085" style="font-style:normal;font-weight:normal;font-size:72px;line-height:1;font-family:'Brandmark Script 4';font-variant-ligatures:normal;text-align:center;text-anchor:middle" d="m 321.39069,-20.16 c -0.864,-1.368 -2.664,-1.728 -4.032,-0.864 -0.216,0.216 -24.264,15.984 -49.896,15.984 -3.096,0 -5.544,-0.648 -6.912,-1.944 -1.08,-1.008 -1.656,-2.52 -1.656,-4.464 0,-0.288 0,-0.576 0,-0.864 l 0.288,0.072 c 7.416,1.944 13.392,-1.368 16.416,-5.112 2.88,-3.456 3.744,-7.632 2.304,-10.656 -1.152,-2.52 -3.744,-3.96 -7.056,-3.96 -9.432,0 -17.784,11.448 -17.784,20.52 0,3.6 1.224,6.624 3.528,8.712 2.52,2.376 6.192,3.528 10.872,3.528 27.432,0 52.128,-16.272 53.136,-16.92 1.368,-0.936 1.728,-2.736 0.792,-4.032 z m -50.544,-5.976 c 0.432,0 1.512,0.072 1.8,0.576 0.36,0.72 0.072,2.592 -1.512,4.536 -0.936,1.08 -4.464,4.68 -10.512,3.168 h -0.072 c 2.304,-4.536 6.552,-8.28 10.296,-8.28 z" stroke-width="0" stroke-linejoin="miter" stroke-miterlimit="2" fill="#9009af" stroke="#9009af" transform="translate(0 245.14088500000003) translate(265.4363599999999 116.14542999999999) scale(1) translate(-253.06269 31.968)"></path>
                <path id="path522087" style="font-style:normal;font-weight:normal;font-size:72px;line-height:1;font-family:'Brandmark Script 4';font-variant-ligatures:normal;text-align:center;text-anchor:middle" d="m 407.54431,-20.088 c -0.864,-1.368 -2.664,-1.8 -4.032,-0.936 -12.744,7.992 -35.424,20.592 -42.12,20.592 h -0.504 c -0.432,-1.152 0.576,-5.184 1.08,-7.416 1.224,-4.968 2.376,-9.648 0,-12.744 -0.864,-1.008 -2.448,-2.232 -5.256,-2.232 -6.84,0 -16.2,5.832 -24.408,11.016 -4.176,2.592 -9.864,6.192 -11.808,6.48 -0.072,-1.224 0.36,-5.616 7.2,-17.928 19.368,-34.56 34.2,-58.176 44.136,-70.056 1.008,-1.296 0.864,-3.096 -0.36,-4.104 -1.224,-1.08 -3.096,-0.864 -4.104,0.36 -10.296,12.384 -24.984,35.568 -44.784,70.992 -10.296,18.504 -7.92,22.464 -7.056,23.976 0.936,1.656 2.664,2.592 4.752,2.592 3.24,0 7.632,-2.664 15.12,-7.344 7.2,-4.536 16.2,-10.152 21.312,-10.152 0.432,0 0.648,0.072 0.648,0 0.648,1.008 -0.432,5.4 -1.008,7.776 -1.224,4.824 -2.376,9.432 0,12.384 0.792,1.008 2.304,2.232 5.04,2.232 1.728,0 7.056,0 27,-10.872 9.648,-5.256 18.144,-10.584 18.216,-10.656 1.368,-0.792 1.8,-2.592 0.936,-3.96 z" stroke-width="0" stroke-linejoin="miter" stroke-miterlimit="2" fill="#970bad" stroke="#970bad" transform="translate(0 245.14088500000003) translate(327.0400899999999 50) scale(1) translate(-314.66642 98.11343)"></path>
                <path id="path522089" style="font-style:normal;font-weight:normal;font-size:72px;line-height:1;font-family:'Brandmark Script 4';font-variant-ligatures:normal;text-align:center;text-anchor:middle" d="m 490.52544,-22.248 c -7.272,-6.768 -27.936,-4.68 -36.792,-2.664 -1.512,0.36 -2.52,1.944 -2.16,3.528 0.36,1.584 1.944,2.52 3.528,2.16 9.792,-2.304 27,-2.952 31.464,1.296 0.576,0.504 1.296,0.72 2.016,0.72 0.792,0 1.584,-0.288 2.16,-0.936 1.08,-1.152 1.008,-3.024 -0.216,-4.104 z" stroke-width="0" stroke-linejoin="miter" stroke-miterlimit="2" fill="#9e0dac" stroke="#9e0dac" transform="translate(0 245.14088500000003) translate(463.8739599999999 121.235849) scale(1) translate(-451.50029 26.877581)"></path>
                <path id="path522091" style="font-style:normal;font-weight:normal;font-size:72px;line-height:1;font-family:'Brandmark Script 4';font-variant-ligatures:normal;text-align:center;text-anchor:middle" d="m 544.85056,-21.096 c -0.144,-1.584 -0.288,-2.88 -13.824,-11.16 -6.336,-3.816 -13.32,-7.848 -15.768,-9.072 -1.44,-0.792 -3.168,-0.216 -3.96,1.224 -0.72,1.368 -0.144,3.168 1.224,3.888 4.896,2.592 19.584,11.16 24.984,15.12 -4.896,2.808 -16.56,8.136 -23.976,11.592 -10.008,4.608 -15.768,7.272 -17.352,8.424 -1.296,0.936 -1.584,2.808 -0.648,4.104 0.576,0.792 1.44,1.152 2.376,1.152 0.576,0 1.152,-0.144 1.656,-0.504 1.224,-0.936 9.288,-4.608 16.344,-7.92 28.44,-13.032 29.16,-13.896 28.944,-16.848 z" stroke-width="0" stroke-linejoin="miter" stroke-miterlimit="2" fill="#a40eaa" stroke="#a40eaa" transform="translate(0 245.14088500000003) translate(507.35468 106.428213) scale(1) translate(-494.98101 41.685217)"></path>
                <path id="path522093" style="font-style:normal;font-weight:normal;font-size:72px;line-height:1;font-family:'Brandmark Script 4';font-variant-ligatures:normal;text-align:center;text-anchor:middle" d="m 760.16206,-83.088 c -1.224,-1.152 -3.024,-1.08 -4.176,0.072 -18.792,19.944 -71.208,71.28 -90.144,72.576 -0.072,-3.6 4.968,-15.192 8.136,-22.32 6.768,-15.552 10.512,-24.552 7.704,-28.872 -0.936,-1.368 -2.448,-2.16 -4.248,-2.16 -12.672,0 -34.56,16.488 -57.744,33.984 -18.576,14.04 -37.8,28.512 -45.648,28.512 -0.432,0 -0.576,-0.072 -0.576,-0.072 -1.008,-1.368 0.432,-11.232 19.224,-39.744 12.312,-18.648 26.568,-36.864 30.6,-40.104 1.296,-1.008 1.512,-2.88 0.504,-4.104 -1.008,-1.296 -2.88,-1.44 -4.104,-0.432 -4.824,3.816 -19.296,22.536 -30.888,39.96 -16.128,24.264 -23.184,39.816 -20.88,46.224 0.864,2.592 3.096,4.104 6.12,4.104 9.864,0 28.08,-13.752 49.176,-29.664 20.016,-15.12 42.624,-32.184 53.64,-32.832 0.216,3.6 -5.04,15.552 -8.28,22.896 -6.696,15.264 -10.368,24.12 -7.56,28.368 0.864,1.368 2.376,2.088 4.104,2.088 10.728,0 29.448,-12.24 57.312,-37.44 20.16,-18.288 37.656,-36.792 37.8,-36.936 1.152,-1.152 1.08,-3.024 -0.072,-4.104 z" stroke-width="0" stroke-linejoin="miter" stroke-miterlimit="2" fill="#ab10a9" stroke="#ab10a9" transform="translate(0 245.14088500000003) translate(579.86984 61.699929999999995) scale(1) translate(-567.49617 86.4135)"></path>
                <path id="path522095" style="font-style:normal;font-weight:normal;font-size:72px;line-height:1;font-family:'Brandmark Script 4';font-variant-ligatures:normal;text-align:center;text-anchor:middle" d="m 784.50144,-20.016 c -0.792,-1.44 -2.592,-1.872 -3.96,-1.08 -7.56,4.464 -16.704,7.056 -26.64,7.56 0.792,-2.16 1.296,-4.248 1.296,-6.264 0,-2.592 -0.864,-4.752 -2.376,-6.336 -1.656,-1.656 -4.032,-2.52 -7.056,-2.52 -3.672,0 -5.832,1.368 -7.056,2.592 -1.296,1.224 -2.088,2.808 -2.376,4.68 h -0.216 c -7.776,2.304 -11.016,10.08 -10.152,16.2 0.72,4.968 3.96,8.136 8.208,8.136 6.192,0 12.456,-4.68 16.56,-10.512 12.168,-0.144 23.544,-3.096 32.76,-8.496 1.368,-0.792 1.8,-2.592 1.008,-3.96 z m -36.936,6.336 c -3.744,-0.936 -5.544,-4.032 -5.544,-6.192 0,-0.576 0.144,-1.44 0.792,-2.016 0.576,-0.648 1.656,-0.936 2.952,-0.936 1.008,0 2.232,0.144 2.88,0.792 0.576,0.576 0.72,1.512 0.72,2.232 0,1.728 -0.72,3.888 -1.8,6.12 z m -13.392,10.8 c -1.8,0 -2.304,-2.16 -2.448,-3.168 -0.36,-2.808 0.792,-7.776 5.4,-9.504 1.224,2.88 3.672,5.472 7.056,6.912 -2.88,3.24 -6.48,5.76 -10.008,5.76 z" stroke-width="0" stroke-linejoin="miter" stroke-miterlimit="2" fill="#b212a7" stroke="#b212a7" transform="translate(0 245.14088500000003) translate(738.20319 119.45742999999999) scale(1) translate(-725.82952 28.656)"></path>
                <path id="path522097" style="font-style:normal;font-weight:normal;font-size:72px;line-height:1;font-family:'Brandmark Script 4';font-variant-ligatures:normal;text-align:center;text-anchor:middle" d="m 883.36981,-21.456 c -11.808,0 -20.304,-1.296 -22.32,-2.52 -0.648,-0.36 -1.44,-0.504 -2.232,-0.288 -0.792,0.216 -1.368,0.72 -1.8,1.44 -1.512,2.736 -14.544,14.256 -22.68,14.256 -6.408,0 -6.624,-12.744 -6.624,-12.888 0,-1.08 -0.576,-2.016 -1.512,-2.52 -0.936,-0.504 -2.088,-0.504 -2.952,0.072 -8.496,5.544 -29.736,16.272 -35.28,16.272 -0.648,0 -1.08,-0.144 -1.44,-1.008 -1.296,-2.736 0,-8.424 1.152,-9.72 1.08,-1.224 0.936,-3.096 -0.288,-4.104 -1.224,-1.08 -3.024,-0.936 -4.104,0.216 -2.736,3.096 -4.248,11.304 -2.088,16.056 1.296,2.808 3.744,4.392 6.768,4.392 6.912,0 25.128,-9.432 34.344,-14.76 0.216,1.224 0.504,2.52 0.864,3.816 2.664,8.712 8.136,10.008 11.16,10.008 9.216,0 21.528,-9.792 26.208,-15.192 6.768,2.16 19.944,2.304 22.824,2.304 1.584,0 2.88,-1.368 2.88,-2.952 0,-1.584 -1.296,-2.88 -2.88,-2.88 z" stroke-width="0" stroke-linejoin="miter" stroke-miterlimit="2" fill="#b914a6" stroke="#b914a6" transform="translate(0 245.14088500000003) translate(792.5487499999999 123.74794299999999) scale(1) translate(-780.17508 24.365487)"></path>
            </g>
            <image xlink:href="" id="icon" style="display: none;" x="0" y="0"></image>
        </g>
    </g>
</svg>
